<?xml version="1.0"?>
<!-- Generated by SVGo -->
<svg width="900" height="400"
     xmlns="http://www.w3.org/2000/svg" 
     xmlns:xlink="http://www.w3.org/1999/xlink">
<title>scatter</title>
<rect x="0" y="0" width="900" height="400" style="fill: #ffffff"/>
<g style="font-family: Helvetica; font-size: 12">
<rect x="0" y="0" width="450" height="400" style="stroke: #ffffff; opacity: 1.0000; fill: #ffffff; fill-opacity: 1.0000"/>
<text x="249" y="394" style="text-anchor:middle">  Succesfuld karriere  </text>
<line x1="-9223372036854775736" y1="346" x2="-9223372036854775736" y2="358" style="stroke:#000000; stroke-width: 1; fill:none; opacity: 1.000; "/>
<text x="116" y="376" style="text-anchor:middle">Januar</text>
<line x1="-9223372036854775736" y1="346" x2="-9223372036854775736" y2="358" style="stroke:#000000; stroke-width: 1; fill:none; opacity: 1.000; "/>
<text x="160" y="376" style="text-anchor:middle">Februar</text>
<line x1="-9223372036854775736" y1="346" x2="-9223372036854775736" y2="358" style="stroke:#000000; stroke-width: 1; fill:none; opacity: 1.000; "/>
<text x="204" y="376" style="text-anchor:middle">Marts</text>
<line x1="-9223372036854775736" y1="346" x2="-9223372036854775736" y2="358" style="stroke:#000000; stroke-width: 1; fill:none; opacity: 1.000; "/>
<text x="249" y="376" style="text-anchor:middle">Maj</text>
<line x1="-9223372036854775736" y1="346" x2="-9223372036854775736" y2="358" style="stroke:#000000; stroke-width: 1; fill:none; opacity: 1.000; "/>
<text x="293" y="376" style="text-anchor:middle">Juni</text>
<line x1="-9223372036854775736" y1="346" x2="-9223372036854775736" y2="358" style="stroke:#000000; stroke-width: 1; fill:none; opacity: 1.000; "/>
<text x="337" y="376" style="text-anchor:middle">Juli</text>
<line x1="-9223372036854775736" y1="346" x2="-9223372036854775736" y2="358" style="stroke:#000000; stroke-width: 1; fill:none; opacity: 1.000; "/>
<text x="381" y="376" style="text-anchor:middle">August</text>
<line x1="72" y1="352" x2="426" y2="352" style="stroke:#000000; stroke-width: 2; fill:none; opacity: 1.000; "/>
<text x="24" y="182" transform="rotate(-90 24 182)" style="text-anchor:middle">Pro-EU</text>
<line x1="66" y1="352" x2="78" y2="352" style="stroke:#000000; stroke-width: 1; fill:none; opacity: 1.000; "/>
<text x="60" y="356" style="text-anchor:end">20</text>
<line x1="66" y1="310" x2="78" y2="310" style="stroke:#000000; stroke-width: 1; fill:none; opacity: 1.000; "/>
<text x="60" y="314" style="text-anchor:end">40</text>
<line x1="66" y1="267" x2="78" y2="267" style="stroke:#000000; stroke-width: 1; fill:none; opacity: 1.000; "/>
<text x="60" y="271" style="text-anchor:end">60</text>
<line x1="66" y1="225" x2="78" y2="225" style="stroke:#000000; stroke-width: 1; fill:none; opacity: 1.000; "/>
<text x="60" y="229" style="text-anchor:end">80</text>
<line x1="66" y1="182" x2="78" y2="182" style="stroke:#000000; stroke-width: 1; fill:none; opacity: 1.000; "/>
<text x="60" y="186" style="text-anchor:end">100</text>
<line x1="66" y1="140" x2="78" y2="140" style="stroke:#000000; stroke-width: 1; fill:none; opacity: 1.000; "/>
<text x="60" y="144" style="text-anchor:end">120</text>
<line x1="66" y1="97" x2="78" y2="97" style="stroke:#000000; stroke-width: 1; fill:none; opacity: 1.000; "/>
<text x="60" y="101" style="text-anchor:end">140</text>
<line x1="66" y1="55" x2="78" y2="55" style="stroke:#000000; stroke-width: 1; fill:none; opacity: 1.000; "/>
<text x="60" y="59" style="text-anchor:end">160</text>
<line x1="66" y1="12" x2="78" y2="12" style="stroke:#000000; stroke-width: 1; fill:none; opacity: 1.000; "/>
<text x="60" y="16" style="text-anchor:end">180</text>
<line x1="72" y1="352" x2="72" y2="12" style="stroke:#000000; stroke-width: 2; fill:none; opacity: 1.000; "/>
<line x1="116" y1="310" x2="160" y2="278" style="stroke:#00aaaa; stroke-width: 1; fill:none; opacity: 1.000; stroke-dasharray: 4 4"/>
<line x1="160" y1="278" x2="204" y2="310" style="stroke:#00aaaa; stroke-width: 1; fill:none; opacity: 1.000; stroke-dasharray: 4 4"/>
<line x1="204" y1="310" x2="249" y2="278" style="stroke:#00aaaa; stroke-width: 1; fill:none; opacity: 1.000; stroke-dasharray: 4 4"/>
<line x1="249" y1="278" x2="293" y2="136" style="stroke:#00aaaa; stroke-width: 1; fill:none; opacity: 1.000; stroke-dasharray: 4 4"/>
<line x1="293" y1="136" x2="337" y2="87" style="stroke:#00aaaa; stroke-width: 1; fill:none; opacity: 1.000; stroke-dasharray: 4 4"/>
<line x1="337" y1="87" x2="381" y2="42" style="stroke:#00aaaa; stroke-width: 1; fill:none; opacity: 1.000; stroke-dasharray: 4 4"/>
<rect x="306" y="30" width="92" height="22" style="stroke:#202020; stroke-opacity: 1.000; stroke-width: 1; fill: #f0f0f0; fill-opacity: 0.753"/>
<line x1="314" y1="40" x2="341" y2="40" style="stroke:#00aaaa; stroke-width: 1; fill:none; opacity: 1.000; stroke-dasharray: 4 4"/>
<text x="352" y="44" style="text-anchor:begin; font-size: 11">Politiker</text>
</g>
<g style="font-family: Helvetica; font-size: 12">
<g transform="translate(450 0)">
<rect x="0" y="0" width="450" height="400" style="stroke: #ffffff; opacity: 1.0000; fill: #ffffff; fill-opacity: 1.0000"/>
<text x="249" y="394" style="text-anchor:middle">  Karrierens længde  </text>
<line x1="-9223372036854775736" y1="346" x2="-9223372036854775736" y2="358" style="stroke:#000000; stroke-width: 1; fill:none; opacity: 1.000; "/>
<text x="116" y="376" style="text-anchor:middle">Januar</text>
<line x1="-9223372036854775736" y1="346" x2="-9223372036854775736" y2="358" style="stroke:#000000; stroke-width: 1; fill:none; opacity: 1.000; "/>
<text x="160" y="376" style="text-anchor:middle">Februar</text>
<line x1="-9223372036854775736" y1="346" x2="-9223372036854775736" y2="358" style="stroke:#000000; stroke-width: 1; fill:none; opacity: 1.000; "/>
<text x="204" y="376" style="text-anchor:middle">Marts</text>
<line x1="-9223372036854775736" y1="346" x2="-9223372036854775736" y2="358" style="stroke:#000000; stroke-width: 1; fill:none; opacity: 1.000; "/>
<text x="249" y="376" style="text-anchor:middle">Maj</text>
<line x1="-9223372036854775736" y1="346" x2="-9223372036854775736" y2="358" style="stroke:#000000; stroke-width: 1; fill:none; opacity: 1.000; "/>
<text x="293" y="376" style="text-anchor:middle">Juni</text>
<line x1="-9223372036854775736" y1="346" x2="-9223372036854775736" y2="358" style="stroke:#000000; stroke-width: 1; fill:none; opacity: 1.000; "/>
<text x="337" y="376" style="text-anchor:middle">Juli</text>
<line x1="-9223372036854775736" y1="346" x2="-9223372036854775736" y2="358" style="stroke:#000000; stroke-width: 1; fill:none; opacity: 1.000; "/>
<text x="381" y="376" style="text-anchor:middle">August</text>
<line x1="72" y1="352" x2="426" y2="352" style="stroke:#000000; stroke-width: 2; fill:none; opacity: 1.000; "/>
<text x="24" y="182" transform="rotate(-90 24 182)" style="text-anchor:middle">Idealisme</text>
<line x1="66" y1="352" x2="78" y2="352" style="stroke:#000000; stroke-width: 1; fill:none; opacity: 1.000; "/>
<text x="60" y="356" style="text-anchor:end">120</text>
<line x1="66" y1="310" x2="78" y2="310" style="stroke:#000000; stroke-width: 1; fill:none; opacity: 1.000; "/>
<text x="60" y="314" style="text-anchor:end">140</text>
<line x1="66" y1="267" x2="78" y2="267" style="stroke:#000000; stroke-width: 1; fill:none; opacity: 1.000; "/>
<text x="60" y="271" style="text-anchor:end">160</text>
<line x1="66" y1="225" x2="78" y2="225" style="stroke:#000000; stroke-width: 1; fill:none; opacity: 1.000; "/>
<text x="60" y="229" style="text-anchor:end">180</text>
<line x1="66" y1="182" x2="78" y2="182" style="stroke:#000000; stroke-width: 1; fill:none; opacity: 1.000; "/>
<text x="60" y="186" style="text-anchor:end">200</text>
<line x1="66" y1="140" x2="78" y2="140" style="stroke:#000000; stroke-width: 1; fill:none; opacity: 1.000; "/>
<text x="60" y="144" style="text-anchor:end">220</text>
<line x1="66" y1="97" x2="78" y2="97" style="stroke:#000000; stroke-width: 1; fill:none; opacity: 1.000; "/>
<text x="60" y="101" style="text-anchor:end">240</text>
<line x1="66" y1="55" x2="78" y2="55" style="stroke:#000000; stroke-width: 1; fill:none; opacity: 1.000; "/>
<text x="60" y="59" style="text-anchor:end">260</text>
<line x1="66" y1="12" x2="78" y2="12" style="stroke:#000000; stroke-width: 1; fill:none; opacity: 1.000; "/>
<text x="60" y="16" style="text-anchor:end">280</text>
<line x1="72" y1="352" x2="72" y2="12" style="stroke:#000000; stroke-width: 2; fill:none; opacity: 1.000; "/>
<line x1="116" y1="267" x2="160" y2="321" style="stroke:#cc0000; stroke-width: 1; fill:none; opacity: 1.000; "/>
<line x1="160" y1="321" x2="204" y2="231" style="stroke:#cc0000; stroke-width: 1; fill:none; opacity: 1.000; "/>
<line x1="204" y1="231" x2="249" y2="331" style="stroke:#cc0000; stroke-width: 1; fill:none; opacity: 1.000; "/>
<line x1="249" y1="331" x2="293" y2="289" style="stroke:#cc0000; stroke-width: 1; fill:none; opacity: 1.000; "/>
<line x1="293" y1="289" x2="337" y2="76" style="stroke:#cc0000; stroke-width: 1; fill:none; opacity: 1.000; "/>
<line x1="337" y1="76" x2="381" y2="55" style="stroke:#cc0000; stroke-width: 1; fill:none; opacity: 1.000; "/>
<rect x="288" y="30" width="109" height="22" style="stroke:#202020; stroke-opacity: 1.000; stroke-width: 1; fill: #f0f0f0; fill-opacity: 0.753"/>
<line x1="296" y1="40" x2="323" y2="40" style="stroke:#cc0000; stroke-width: 1; fill:none; opacity: 1.000; "/>
<text x="334" y="44" style="text-anchor:begin; font-size: 11">Arbejdsløs</text>
</g>
</g>
</svg>
