<?xml version="1.0"?>
<!-- Generated by SVGo -->
<svg width="1000" height="300"
     xmlns="http://www.w3.org/2000/svg" 
     xmlns:xlink="http://www.w3.org/1999/xlink">
<title>xbar2</title>
<rect x="0" y="0" width="1000" height="300" style="fill: #ffffff"/>
<g style="font-family: Helvetica; font-size: 12">
<rect x="0" y="0" width="500" height="300" style="stroke: #ffffff; opacity: 1.0000; fill: #ffffff; fill-opacity: 1.0000"/>
<text x="250" y="17" style="text-anchor:middle; font-size: 13">Statistik for allancorfix.dk, tid i MS</text>
<line x1="-9223372036854775760" y1="264" x2="-9223372036854775760" y2="276" style="stroke:#000000; stroke-width: 1; fill:none; opacity: 1.000; "/>
<text x="101" y="294" style="text-anchor:middle">Januar</text>
<line x1="-9223372036854775760" y1="264" x2="-9223372036854775760" y2="276" style="stroke:#000000; stroke-width: 1; fill:none; opacity: 1.000; "/>
<text x="208" y="294" style="text-anchor:middle">Februar</text>
<line x1="-9223372036854775760" y1="264" x2="-9223372036854775760" y2="276" style="stroke:#000000; stroke-width: 1; fill:none; opacity: 1.000; "/>
<text x="315" y="294" style="text-anchor:middle">Marts</text>
<line x1="-9223372036854775760" y1="264" x2="-9223372036854775760" y2="276" style="stroke:#000000; stroke-width: 1; fill:none; opacity: 1.000; "/>
<text x="422" y="294" style="text-anchor:middle">Maj</text>
<line x1="48" y1="270" x2="476" y2="270" style="stroke:#000000; stroke-width: 2; fill:none; opacity: 1.000; "/>
<line x1="42" y1="270" x2="54" y2="270" style="stroke:#000000; stroke-width: 1; fill:none; opacity: 1.000; "/>
<text x="36" y="274" style="text-anchor:end">-500</text>
<line x1="42" y1="225" x2="54" y2="225" style="stroke:#000000; stroke-width: 1; fill:none; opacity: 1.000; "/>
<text x="36" y="229" style="text-anchor:end">0</text>
<line x1="42" y1="179" x2="54" y2="179" style="stroke:#000000; stroke-width: 1; fill:none; opacity: 1.000; "/>
<text x="36" y="183" style="text-anchor:end">500</text>
<line x1="42" y1="134" x2="54" y2="134" style="stroke:#000000; stroke-width: 1; fill:none; opacity: 1.000; "/>
<text x="36" y="138" style="text-anchor:end">1000</text>
<line x1="42" y1="88" x2="54" y2="88" style="stroke:#000000; stroke-width: 1; fill:none; opacity: 1.000; "/>
<text x="36" y="92" style="text-anchor:end">1.5 k</text>
<line x1="42" y1="42" x2="54" y2="42" style="stroke:#000000; stroke-width: 1; fill:none; opacity: 1.000; "/>
<text x="36" y="46" style="text-anchor:end">2.0 k</text>
<line x1="48" y1="270" x2="48" y2="42" style="stroke:#000000; stroke-width: 2; fill:none; opacity: 1.000; "/>
<line x1="101" y1="225" x2="208" y2="225" style="stroke:#cc0000; stroke-width: 1; fill:none; opacity: 1.000; "/>
<line x1="208" y1="225" x2="315" y2="224" style="stroke:#cc0000; stroke-width: 1; fill:none; opacity: 1.000; "/>
<line x1="315" y1="224" x2="422" y2="224" style="stroke:#cc0000; stroke-width: 1; fill:none; opacity: 1.000; "/>
<g style="stroke:#cc0000; stroke-width: 1">
<rect x="97" y="221" width="8" height="8" style="fill:#cc0000"/>
</g>
<g style="stroke:#cc0000; stroke-width: 1">
<rect x="204" y="221" width="8" height="8" style="fill:#cc0000"/>
</g>
<g style="stroke:#cc0000; stroke-width: 1">
<rect x="311" y="220" width="8" height="8" style="fill:#cc0000"/>
</g>
<g style="stroke:#cc0000; stroke-width: 1">
<rect x="418" y="220" width="8" height="8" style="fill:#cc0000"/>
</g>
<line x1="101" y1="221" x2="208" y2="220" style="stroke:#990099; stroke-width: 1; fill:none; opacity: 1.000; "/>
<line x1="208" y1="220" x2="315" y2="221" style="stroke:#990099; stroke-width: 1; fill:none; opacity: 1.000; "/>
<line x1="315" y1="221" x2="422" y2="220" style="stroke:#990099; stroke-width: 1; fill:none; opacity: 1.000; "/>
<g style="stroke:#990099; stroke-width: 1">
<rect x="97" y="217" width="8" height="8" style="fill:#990099"/>
</g>
<g style="stroke:#990099; stroke-width: 1">
<rect x="204" y="216" width="8" height="8" style="fill:#990099"/>
</g>
<g style="stroke:#990099; stroke-width: 1">
<rect x="311" y="217" width="8" height="8" style="fill:#990099"/>
</g>
<g style="stroke:#990099; stroke-width: 1">
<rect x="418" y="216" width="8" height="8" style="fill:#990099"/>
</g>
<line x1="101" y1="217" x2="208" y2="218" style="stroke:#00aa00; stroke-width: 1; fill:none; opacity: 1.000; "/>
<line x1="208" y1="218" x2="315" y2="216" style="stroke:#00aa00; stroke-width: 1; fill:none; opacity: 1.000; "/>
<line x1="315" y1="216" x2="422" y2="216" style="stroke:#00aa00; stroke-width: 1; fill:none; opacity: 1.000; "/>
<g style="stroke:#00aa00; stroke-width: 1">
<rect x="97" y="213" width="8" height="8" style="fill:#00aa00"/>
</g>
<g style="stroke:#00aa00; stroke-width: 1">
<rect x="204" y="214" width="8" height="8" style="fill:#00aa00"/>
</g>
<g style="stroke:#00aa00; stroke-width: 1">
<rect x="311" y="212" width="8" height="8" style="fill:#00aa00"/>
</g>
<g style="stroke:#00aa00; stroke-width: 1">
<rect x="418" y="212" width="8" height="8" style="fill:#00aa00"/>
</g>
<line x1="101" y1="207" x2="208" y2="198" style="stroke:#0000ff; stroke-width: 1; fill:none; opacity: 1.000; "/>
<line x1="208" y1="198" x2="315" y2="143" style="stroke:#0000ff; stroke-width: 1; fill:none; opacity: 1.000; "/>
<line x1="315" y1="143" x2="422" y2="88" style="stroke:#0000ff; stroke-width: 1; fill:none; opacity: 1.000; "/>
<g style="stroke:#0000ff; stroke-width: 1">
<rect x="97" y="203" width="8" height="8" style="fill:#0000ff"/>
</g>
<g style="stroke:#0000ff; stroke-width: 1">
<rect x="204" y="194" width="8" height="8" style="fill:#0000ff"/>
</g>
<g style="stroke:#0000ff; stroke-width: 1">
<rect x="311" y="139" width="8" height="8" style="fill:#0000ff"/>
</g>
<g style="stroke:#0000ff; stroke-width: 1">
<rect x="418" y="84" width="8" height="8" style="fill:#0000ff"/>
</g>
<line x1="101" y1="213" x2="208" y2="220" style="stroke:#cc0000; stroke-width: 1; fill:none; opacity: 1.000; "/>
<line x1="208" y1="220" x2="315" y2="218" style="stroke:#cc0000; stroke-width: 1; fill:none; opacity: 1.000; "/>
<line x1="315" y1="218" x2="422" y2="223" style="stroke:#cc0000; stroke-width: 1; fill:none; opacity: 1.000; "/>
<g style="stroke:#cc0000; stroke-width: 1">
<rect x="97" y="209" width="8" height="8" style="fill:#cc0000"/>
</g>
<g style="stroke:#cc0000; stroke-width: 1">
<rect x="204" y="216" width="8" height="8" style="fill:#cc0000"/>
</g>
<g style="stroke:#cc0000; stroke-width: 1">
<rect x="311" y="214" width="8" height="8" style="fill:#cc0000"/>
</g>
<g style="stroke:#cc0000; stroke-width: 1">
<rect x="418" y="219" width="8" height="8" style="fill:#cc0000"/>
</g>
<rect x="320" y="60" width="125" height="99" style="stroke:#202020; stroke-opacity: 1.000; stroke-width: 1; fill: #f0f0f0; fill-opacity: 0.753"/>
<line x1="328" y1="70" x2="355" y2="70" style="stroke:#cc0000; stroke-width: 1; fill:none; opacity: 1.000; "/>
<g style="stroke:#cc0000; stroke-width: 1">
<rect x="337" y="66" width="8" height="8" style="fill:#cc0000"/>
</g>
<text x="366" y="74" style="text-anchor:begin; font-size: 11">Ping</text>
<line x1="328" y1="89" x2="355" y2="89" style="stroke:#990099; stroke-width: 1; fill:none; opacity: 1.000; "/>
<g style="stroke:#990099; stroke-width: 1">
<rect x="337" y="85" width="8" height="8" style="fill:#990099"/>
</g>
<text x="366" y="93" style="text-anchor:begin; font-size: 11">TTFB-Low20</text>
<line x1="328" y1="108" x2="355" y2="108" style="stroke:#00aa00; stroke-width: 1; fill:none; opacity: 1.000; "/>
<g style="stroke:#00aa00; stroke-width: 1">
<rect x="337" y="104" width="8" height="8" style="fill:#00aa00"/>
</g>
<text x="366" y="112" style="text-anchor:begin; font-size: 11">TTFB-Med60</text>
<line x1="328" y1="127" x2="355" y2="127" style="stroke:#0000ff; stroke-width: 1; fill:none; opacity: 1.000; "/>
<g style="stroke:#0000ff; stroke-width: 1">
<rect x="337" y="123" width="8" height="8" style="fill:#0000ff"/>
</g>
<text x="366" y="131" style="text-anchor:begin; font-size: 11">TTFB-High20</text>
<line x1="328" y1="146" x2="355" y2="146" style="stroke:#cc0000; stroke-width: 1; fill:none; opacity: 1.000; "/>
<g style="stroke:#cc0000; stroke-width: 1">
<rect x="337" y="142" width="8" height="8" style="fill:#cc0000"/>
</g>
<text x="366" y="150" style="text-anchor:begin; font-size: 11">TTFB-File</text>
</g>
</svg>
